{"title":"Safe.2012.CAM.XViD.AC3-TODE","uid":7234175,"size":714334786,"categoryP":"video","categoryS":"movies","magnet":"?xt=urn:btih:bbd6d863be60e0cab63d81ea99c8ad617b2cfb8d&amp;dn=Safe.2012.CAM.XViD.AC3-TODE&amp;tr=udp%3A%2F%2Ftracker.openbittorrent.com%3A80&amp;tr=udp%3A%2F%2Fopen.demonii.com%3A1337&amp;tr=udp%3A%2F%2Ftracker.coppersurfer.tk%3A6969&amp;tr=udp%3A%2F%2Fexodus.desync.com%3A6969","seeders":0,"leechers":0,"uploader":"VITTORY","files":-1,"time":1335943329,"description":"Safe.2012.CAM.XViD.AC3-TODE\n\n &lt;a href=&quot;\nhttp://www.imdb.com/title/tt1656190/&quot; rel=&quot;nofollow&quot; target=&quot;_NEW&quot;&gt;\nhttp://www.imdb.com/title/tt1656190/&lt;/a&gt;\n\n\nFormat : AVI\n Format/Info : Audio Video Interleave\n File size : 681 MiB\n Duration : 1h 27mn\n Overall bit rate : 1 092 Kbps\n Writing application : Lavf54.3.100\n\n Video\n ID : 0\n Format : MPEG-4 Visual\n Format profile : Simple@L3\n Format settings, BVOP : No\n Format settings, QPel : No\n Format settings, GMC : No warppoints\n Format settings, Matrix : Default (H.263)\n Codec ID : XVID\n Codec ID/Hint : XviD\n Duration : 1h 27mn\n Bit rate : 953 Kbps\n Width : 640 pixels\n Height : 256 pixels\n Display aspect ratio : 2.500\n Frame rate : 25.000 fps\n Color space : YUV\n Chroma subsampling : 4:2:0\n Bit depth : 8 bits\n Scan type : Progressive\n Compression mode : Lossy\n Bits/(Pixel*Frame) : 0.233\n Stream size : 595 MiB (87%)\n Writing library : XviD 64\n\n Audio\n ID : 1\n Format : AC-3\n Format/Info : Audio Coding 3\n Mode extension : CM (complete main)\n Codec ID : 2000\n Duration : 1h 27mn\n Bit rate mode : Constant\n Bit rate : 128 Kbps\n Channel(s) : 2 channels\n Channel positions : Front: L R\n Sampling rate : 48.0 KHz\n Bit depth : 16 bits\n Compression mode : Lossy\n Stream size : 79.8 MiB (12%)\n Alignment : Aligned on interleaves\n Interleave, duration : 32 ms (0.80 video frame)\n\n\nscreeny:\n &lt;a href=&quot;\nhttp://img844.imageshack.us/img844/7253/w44qa9n0o90a.jpg&quot; rel=&quot;nofollow&quot; target=&quot;_NEW&quot;&gt;\nhttp://img844.imageshack.us/img844/7253/w44qa9n0o90a.jpg&lt;/a&gt; &lt;a href=&quot;\nhttp://img545.imageshack.us/img545/2901/lauuv0cdewy3.jpg&quot; rel=&quot;nofollow&quot; target=&quot;_NEW&quot;&gt;\nhttp://img545.imageshack.us/img545/2901/lauuv0cdewy3.jpg&lt;/a&gt; &lt;a href=&quot;\nhttp://img651.imageshack.us/img651/4454/4713981m.jpg&quot; rel=&quot;nofollow&quot; target=&quot;_NEW&quot;&gt;\nhttp://img651.imageshack.us/img651/4454/4713981m.jpg&lt;/a&gt; &lt;a href=&quot;\nhttp://img135.imageshack.us/img135/7391/kp9c21l0s6xz.jpg&quot; rel=&quot;nofollow&quot; target=&quot;_NEW&quot;&gt;\nhttp://img135.imageshack.us/img135/7391/kp9c21l0s6xz.jpg&lt;/a&gt;\n\n","torrent":{"xt":"urn:btih:bbd6d863be60e0cab63d81ea99c8ad617b2cfb8d","amp;dn":"Safe.2012.CAM.XViD.AC3-TODE","amp;tr":["udp%3A%2F%2Ftracker.openbittorrent.com%3A80","udp%3A%2F%2Fopen.demonii.com%3A1337","udp%3A%2F%2Ftracker.coppersurfer.tk%3A6969","udp%3A%2F%2Fexodus.desync.com%3A6969"],"infoHash":"bbd6d863be60e0cab63d81ea99c8ad617b2cfb8d","infoHashBuffer":{"type":"Buffer","data":[187,214,216,99,190,96,224,202,182,61,129,234,153,200,173,97,123,44,251,141]},"announce":[],"urlList":[]}}